<svg width="16" height="16" viewBox="0 0 16 16" fill="none" xmlns="http://www.w3.org/2000/svg">
<path d="M1.25 5.75H14.75M4.25 1.25V2.75M11.75 1.25V2.75M3.5 8H5M7.25 8H8.75M11 8H12.5M3.5 10.25H5M7.25 10.25H8.75M11 10.25H12.5M3.5 12.5H5M7.25 12.5H8.75M11 12.5H12.5M3.65 14.75H12.35C13.1901 14.75 13.6102 14.75 13.931 14.5865C14.2132 14.4427 14.4427 14.2132 14.5865 13.931C14.75 13.6102 14.75 13.1901 14.75 12.35V5.15C14.75 4.30992 14.75 3.88988 14.5865 3.56902C14.4427 3.28677 14.2132 3.0573 13.931 2.91349C13.6102 2.75 13.1901 2.75 12.35 2.75H3.65C2.80992 2.75 2.38988 2.75 2.06902 2.91349C1.78677 3.0573 1.5573 3.28677 1.41349 3.56902C1.25 3.88988 1.25 4.30992 1.25 5.15V12.35C1.25 13.1901 1.25 13.6102 1.41349 13.931C1.5573 14.2132 1.78677 14.4427 2.06902 14.5865C2.38988 14.75 2.80992 14.75 3.65 14.75Z" stroke="#835AA2" stroke-linecap="round"/>
</svg>
