<svg width="19" height="20" viewBox="0 0 19 20" fill="none" xmlns="http://www.w3.org/2000/svg">
<path d="M7.16965 1.64522L7.94034 3.09888C8.63585 4.41074 8.35667 6.13166 7.26121 7.28477C7.26121 7.28477 5.93261 8.68352 8.34159 11.2194C10.7498 13.7544 12.0795 12.3567 12.0795 12.3567C13.175 11.2035 14.8098 10.9097 16.0561 11.6418L17.437 12.453C19.319 13.5585 19.5411 16.3365 17.8871 18.0778C16.8931 19.124 15.6755 19.9382 14.3294 19.9918C12.0636 20.0823 8.21548 19.4787 4.35539 15.4154C0.495344 11.3522 -0.0781231 7.30154 0.00778058 4.91637C0.0588074 3.49951 0.832202 2.21779 1.82615 1.17154C3.48028 -0.569651 6.11939 -0.3357 7.16965 1.64522Z" fill="#835AA2"/>
</svg>
