<svg width="26" height="26" viewBox="0 0 26 26" fill="none" xmlns="http://www.w3.org/2000/svg">
<path d="M18.4562 0H7.55677C2.82241 0 0 2.821 0 7.553V18.434C0 23.179 2.82241 26 7.55677 26H18.4432C23.1775 26 26 23.179 26 18.447V7.553C26.013 2.821 23.1906 0 18.4562 0ZM19.2236 10.01L11.8489 17.381C11.6668 17.563 11.4197 17.667 11.1596 17.667C10.8994 17.667 10.6523 17.563 10.4702 17.381L6.78938 13.702C6.41219 13.325 6.41219 12.701 6.78938 12.324C7.16657 11.947 7.79088 11.947 8.16807 12.324L11.1596 15.314L17.8449 8.632C18.2221 8.255 18.8464 8.255 19.2236 8.632C19.6008 9.009 19.6008 9.62 19.2236 10.01Z" fill="#835AA2"/>
</svg>
