<svg width="66" height="52" viewBox="0 0 66 52" fill="none" xmlns="http://www.w3.org/2000/svg">
<path d="M11.3954 14.8346H23.1396M11.3954 23.0021H30.1861M11.3954 37.0035V42.4535C11.3954 43.6971 11.3954 44.3187 11.6519 44.638C11.8751 44.9157 12.2134 45.0774 12.5711 45.0769C12.9823 45.0765 13.471 44.6881 14.4483 43.9113L20.0513 39.4579C21.1959 38.5483 21.7683 38.0935 22.4056 37.7701C22.971 37.483 23.5727 37.2732 24.1947 37.1465C24.8958 37.0035 25.6287 37.0035 27.0943 37.0035H33.0047C36.9513 37.0035 38.9243 37.0035 40.4318 36.2404C41.7577 35.5693 42.8356 34.4984 43.5111 33.1811C44.2792 31.6834 44.2792 29.7232 44.2792 25.8024V13.2011C44.2792 9.28035 44.2792 7.31997 43.5111 5.82245C42.8356 4.50518 41.7577 3.43421 40.4318 2.76303C38.9243 2 36.9513 2 33.0047 2H13.2745C9.32802 2 7.3548 2 5.84748 2.76303C4.52158 3.43421 3.4436 4.50518 2.76803 5.82245C2 7.31997 2 9.28035 2 13.2011V27.6692C2 29.8394 2 30.9245 2.2401 31.8148C2.89167 34.2305 4.79106 36.1177 7.22275 36.765C8.11883 37.0035 9.21102 37.0035 11.3954 37.0035Z" stroke="#835AA2" stroke-width="3" stroke-linecap="round" stroke-linejoin="round"/>
<path d="M55.0598 44.4643V48.2015C55.0598 49.0542 55.0598 49.4805 54.8283 49.6994C54.6269 49.8898 54.3216 50.0007 53.9988 50.0004C53.6277 50.0001 53.1867 49.7338 52.3048 49.2011L47.2485 46.1474C46.2155 45.5236 45.699 45.2117 45.1239 44.99C44.6137 44.7931 44.0707 44.6493 43.5094 44.5624C42.8767 44.4643 42.2153 44.4643 40.8927 44.4643H35.559C31.9975 44.4643 30.217 44.4643 28.8566 43.9411C27.6601 43.4808 26.6873 42.7465 26.0777 41.8432C25.3846 40.8163 25.3846 39.4721 25.3846 36.7835V28.1427C25.3846 25.4542 25.3846 24.1099 26.0777 23.083C26.6873 22.1797 27.6601 21.4454 28.8566 20.9851C30.217 20.4619 31.9975 20.4619 35.559 20.4619H53.3641C56.9255 20.4619 58.7061 20.4619 60.0664 20.9851C61.2629 21.4454 62.2357 22.1797 62.8454 23.083C63.5385 24.1099 63.5385 25.4542 63.5385 28.1427V38.0637C63.5385 39.5518 63.5385 40.2959 63.3218 40.9064C62.7338 42.5628 61.0197 43.8569 58.8253 44.3008C58.0167 44.4643 57.031 44.4643 55.0598 44.4643Z" fill="white" stroke="#835AA2" stroke-width="3" stroke-linecap="round" stroke-linejoin="round"/>
<circle cx="37.6923" cy="31.5382" r="2.46154" fill="#835AA2"/>
<circle cx="45.0769" cy="31.5382" r="2.46154" fill="#835AA2"/>
<circle cx="52.4615" cy="31.5382" r="2.46154" fill="#835AA2"/>
</svg>
