<svg width="80" height="80" viewBox="0 0 80 80" fill="none" xmlns="http://www.w3.org/2000/svg">
<rect width="80" height="80" rx="5" fill="#234463"/>
<g clip-path="url(#clip0_4_4022)">
<path fill-rule="evenodd" clip-rule="evenodd" d="M54.495 49.7862C52.1012 48.99 49.5275 48.395 46.8188 48.01C47.1875 45.8438 47.3838 43.5737 47.4463 41.25H57.4525C57.2288 44.4012 56.17 47.3175 54.495 49.7862ZM44.2925 56.9488C45.125 54.9375 45.8062 52.7638 46.33 50.4738C48.5775 50.8063 50.7325 51.2975 52.7737 51.9425C50.5187 54.3463 47.5913 56.115 44.2925 56.9488ZM41.2137 57.4387C40.8112 57.4675 40.41 57.5 40 57.5C39.59 57.5 39.19 57.4675 38.7863 57.4387C37.7225 55.2237 36.8613 52.7588 36.2238 50.1425C37.4663 50.0338 38.725 49.97 40 49.97C41.275 49.97 42.5338 50.0338 43.7775 50.1425C43.1388 52.7588 42.2775 55.2237 41.2137 57.4387ZM27.2263 51.9425C29.2675 51.2975 31.4225 50.8063 33.67 50.4738C34.1938 52.7638 34.875 54.9375 35.7075 56.9488C32.4087 56.115 29.4825 54.3463 27.2263 51.9425ZM25.505 49.7862C23.83 47.3175 22.7712 44.4012 22.5475 41.25H32.5537C32.6162 43.5737 32.8125 45.8438 33.1812 48.01C30.4725 48.395 27.8988 48.99 25.505 49.7862ZM25.505 30.2138C27.8988 31.01 30.4725 31.6062 33.1812 31.99C32.8125 34.1562 32.6162 36.4263 32.5537 38.75H22.5475C22.7712 35.5988 23.83 32.6825 25.505 30.2138ZM35.7075 23.0512C34.875 25.0625 34.1938 27.2362 33.67 29.5262C31.4225 29.195 29.2675 28.7025 27.2263 28.0575C29.4825 25.6537 32.4087 23.885 35.7075 23.0512ZM38.7863 22.5613C39.19 22.5338 39.59 22.5 40 22.5C40.41 22.5 40.8112 22.5338 41.2137 22.5613C42.2775 24.7763 43.1388 27.2425 43.7775 29.8575C42.5338 29.9662 41.275 30.03 40 30.03C38.725 30.03 37.4663 29.9662 36.2238 29.8575C36.8613 27.2425 37.7225 24.7763 38.7863 22.5613ZM44.9425 41.25C44.875 43.4513 44.675 45.6163 44.2987 47.695C42.8912 47.5725 41.46 47.5 40 47.5C38.54 47.5 37.1087 47.5725 35.7025 47.695C35.325 45.6163 35.125 43.4513 35.0587 41.25H44.9425ZM35.0587 38.75C35.125 36.5487 35.325 34.3837 35.7025 32.305C37.1087 32.4275 38.54 32.5 40 32.5C41.46 32.5 42.8913 32.4275 44.2975 32.305C44.675 34.3837 44.875 36.5487 44.9425 38.75H35.0587ZM52.7737 28.0575C50.7325 28.7025 48.5775 29.195 46.33 29.5262C45.8062 27.2362 45.125 25.0625 44.2925 23.0512C47.5913 23.885 50.5187 25.6537 52.7737 28.0575ZM54.495 30.2138C56.17 32.6825 57.2288 35.5988 57.4525 38.75H47.4463C47.3838 36.4263 47.1875 34.1562 46.8188 31.99C49.5275 31.6062 52.1012 31.01 54.495 30.2138ZM40 20C28.955 20 20 28.9538 20 40C20 51.0462 28.955 60 40 60C51.045 60 60 51.0462 60 40C60 28.9538 51.045 20 40 20Z" fill="#54CA75"/>
</g>
<defs>
<clipPath id="clip0_4_4022">
<rect width="40" height="40" fill="white" transform="translate(20 20)"/>
</clipPath>
</defs>
</svg>
