<svg width="80" height="80" viewBox="0 0 80 80" fill="none" xmlns="http://www.w3.org/2000/svg">
<rect width="80" height="80" rx="5" fill="#234463"/>
<path d="M48.1663 27.25V27.75H48.6663H54.7913C57.898 27.75 60.4163 30.2684 60.4163 33.375V53.7916C60.4163 56.8983 57.898 59.4166 54.7913 59.4166H42.5413H40.4997H26.208C23.1014 59.4166 20.583 56.8983 20.583 53.7916V25.2083C20.583 22.1017 23.1014 19.5833 26.208 19.5833H42.5413C45.648 19.5833 48.1663 22.1017 48.1663 25.2083V27.25ZM47.8464 55.6668L47.6109 56.3333H48.3178H54.7913C56.1951 56.3333 57.333 55.1954 57.333 53.7916V33.375C57.333 31.9713 56.1951 30.8333 54.7913 30.8333H48.6663H48.1663V31.3333V53.7916C48.1663 54.4499 48.0534 55.0808 47.8464 55.6668ZM26.208 22.6666C24.8043 22.6666 23.6663 23.8046 23.6663 25.2083V53.7916C23.6663 55.1954 24.8043 56.3333 26.208 56.3333H40.4997H42.5413C43.9451 56.3333 45.083 55.1954 45.083 53.7916V25.2083C45.083 23.8046 43.9451 22.6666 42.5413 22.6666H26.208ZM26.708 47.1666V44.0833H29.7913V47.1666H26.708ZM32.833 44.0833H35.9163V47.1666H32.833V44.0833ZM38.958 47.1666V44.0833H42.0413V47.1666H38.958ZM51.208 44.0833H54.2913V47.1666H51.208V44.0833ZM51.208 35.9166H54.2913V39H51.208V35.9166ZM26.708 35.9166H29.7913V39H26.708V35.9166ZM32.833 35.9166H35.9163V39H32.833V35.9166ZM38.958 35.9166H42.0413V39H38.958V35.9166ZM26.708 27.75H29.7913V30.8333H26.708V27.75ZM32.833 27.75H35.9163V30.8333H32.833V27.75ZM38.958 27.75H42.0413V30.8333H38.958V27.75Z" fill="#54CA75" stroke="#234463"/>
</svg>
