<svg width="80" height="80" viewBox="0 0 80 80" fill="none" xmlns="http://www.w3.org/2000/svg">
<rect width="80" height="80" rx="5" fill="#234463"/>
<path d="M37.207 26.4719C39.1379 26.4719 40.7031 24.9254 40.7031 23.0176C40.7031 21.1098 39.1379 19.5632 37.207 19.5632C35.2762 19.5632 33.7109 21.1098 33.7109 23.0176C33.7109 24.9254 35.2762 26.4719 37.207 26.4719Z" fill="#54CA75"/>
<path d="M62.0308 44.4383L52.457 49.744L53.1259 50.9222L62.6996 45.6165L62.0308 44.4383Z" fill="#54CA75"/>
<path d="M63.0005 45.9516L53.4268 51.2573L54.4204 53.0078L63.9942 47.7021L63.0005 45.9516Z" fill="#54CA75"/>
<path d="M59.9901 43.0021L51.4385 47.7413L52.2029 49.0879L60.7545 44.3487L59.9901 43.0021Z" fill="#54CA75"/>
<path d="M63.4429 48.7467L54.6357 53.6276L55.6294 55.3781L64.4366 50.4972L63.4429 48.7467Z" fill="#54CA75"/>
<path d="M57.4511 38.4412L48.8994 43.1804L49.8931 44.9309L58.4448 40.1917L57.4511 38.4412Z" fill="#54CA75"/>
<path d="M59.3307 40.4323L50.0977 45.5492L51.0913 47.2997L60.3244 42.1829L59.3307 40.4323Z" fill="#54CA75"/>
<path d="M59.9419 55.0912C59.7465 54.7053 59.1606 54.5123 58.77 54.8018L54.9809 56.9053L45.4692 40.4053C45.3715 40.3088 44.7856 39.3439 43.9067 38.7649C42.7348 37.993 41.3872 38.2825 41.1919 38.379L39.2583 39.0544L34.102 35.793L36.0356 32.1456C36.0356 32.1456 37.5005 29.5597 36.0356 27.7263C35.5473 26.9544 34.4731 26.279 33.6137 26.086C32.0512 25.893 30.7036 26.5684 29.8247 27.8228L25.7426 35.407C25.5473 35.6965 25.2544 36.3719 25.059 36.8544C24.9614 37.0474 24.6684 37.7228 24.5708 38.4947L23.1059 47.0439L16.7973 49.6105C14.6684 50.5755 15.4301 54.3193 18.8286 53.3544L25.7426 50.479C25.938 50.3825 26.2309 50.1895 26.4262 49.9965C26.4262 49.9965 26.5239 49.9965 26.5239 49.9C26.7192 49.707 26.8169 49.514 26.9145 49.3211C26.9145 49.3211 26.9145 49.3211 26.9145 49.2246L28.3794 44.7088L32.3637 48.9351L30.9965 57.8702C30.8989 60.8421 34.7856 60.7456 35.1762 57.8702L36.5434 49.1281C36.6411 48.1632 36.2505 47.2947 35.9575 46.7351L35.5669 45.9632L31.5825 40.5018L32.7544 38.3018C34.7856 39.5562 37.4223 41.1772 37.7153 41.3702C38.8872 42.1421 40.0395 41.2737 40.2348 40.2123L41.7973 39.6333C41.7973 39.6333 42.5786 39.4404 43.0669 39.8263C43.5551 40.1158 43.9458 40.6947 44.0434 40.8877L50.1567 51.5404C49.2778 50.7684 48.1255 50.1895 46.8559 50.1895C44.1411 50.1895 41.895 52.3895 41.895 55.0912C41.895 57.7737 44.1215 59.993 46.8559 59.993C49.5708 59.993 51.8169 57.793 51.8169 55.0912C51.8169 54.7053 51.8169 54.4158 51.7192 54.0298L54.1411 58.1597C54.3364 58.4491 54.6294 58.6421 54.9223 58.6421C55.1176 58.6421 55.2153 58.6421 55.313 58.5456L59.7856 56.0562C60.0395 56.0369 60.2153 55.5544 59.9419 55.0912ZM46.8755 57.6386C45.4497 57.6386 44.2973 56.5 44.2973 55.0912C44.2973 53.6825 45.4497 52.5439 46.8755 52.5439C48.3012 52.5439 49.4536 53.6825 49.4536 55.0912C49.4536 56.5 48.3012 57.6386 46.8755 57.6386Z" fill="#54CA75"/>
<path d="M46.875 56.9246C47.8997 56.9246 48.7305 56.1038 48.7305 55.0913C48.7305 54.0787 47.8997 53.2579 46.875 53.2579C45.8503 53.2579 45.0195 54.0787 45.0195 55.0913C45.0195 56.1038 45.8503 56.9246 46.875 56.9246Z" fill="#54CA75"/>
</svg>
