<svg class="custom-button-svg" width="38" height="38" viewBox="0 0 38 38" fill="none" xmlns="http://www.w3.org/2000/svg">
<rect width="38" height="38" rx="5" fill="#B6D2E8"/>
<path fill-rule="evenodd" clip-rule="evenodd" d="M19 11C14.5835 11 11 14.5835 11 19C11 23.4165 14.5835 27 19 27C23.4078 27 27 23.4165 27 19C27 14.5835 23.4078 11 19 11ZM24.2842 14.6876C25.2386 15.8503 25.8113 17.334 25.8287 18.9392C25.6031 18.8959 23.347 18.436 21.0737 18.7224C21.0217 18.6095 20.9783 18.4881 20.9263 18.3666C20.7874 18.0369 20.6313 17.6985 20.475 17.3775C22.9913 16.3536 24.1367 14.8785 24.2842 14.6876ZM19 12.18C20.7354 12.18 22.3232 12.8308 23.5293 13.8981C23.4078 14.0716 22.3753 15.4512 19.9458 16.3623C18.8264 14.3059 17.5857 12.6226 17.3948 12.3623C17.9067 12.2408 18.4447 12.18 19 12.18ZM16.0933 12.8221C16.2755 13.0651 17.4903 14.7571 18.6269 16.7701C15.4338 17.6204 12.6139 17.6031 12.3102 17.6031C12.7527 15.4859 14.1844 13.7245 16.0933 12.8221ZM12.1627 19.0087C12.1627 18.9393 12.1627 18.8699 12.1627 18.8005C12.4577 18.8091 15.7722 18.8525 19.1822 17.8287C19.3818 18.2104 19.564 18.6009 19.7376 18.9913C19.6508 19.0174 19.5553 19.0434 19.4685 19.0694C15.9458 20.206 14.0716 23.3124 13.9154 23.5726C12.8308 22.3666 12.1627 20.7614 12.1627 19.0087ZM19 25.8373C17.4208 25.8373 15.9631 25.2993 14.8091 24.3969C14.9306 24.1454 16.3189 21.4729 20.1714 20.128C20.1887 20.1193 20.1974 20.1193 20.2148 20.1107C21.1779 22.6009 21.5683 24.692 21.6725 25.2907C20.8482 25.6464 19.9458 25.8373 19 25.8373ZM22.8091 24.6659C22.7397 24.2494 22.3753 22.2538 21.4816 19.7983C23.6248 19.4599 25.4989 20.0152 25.7332 20.0933C25.4382 21.9935 24.3449 23.6334 22.8091 24.6659Z" fill="#234661"/>
</svg>
