<svg width="53" height="53" viewBox="0 0 53 53" fill="none" xmlns="http://www.w3.org/2000/svg">
<rect x="1.86523" y="1" width="50.1349" height="50.1349" rx="4" stroke="#DDDDDD" stroke-width="2"/>
<path fill-rule="evenodd" clip-rule="evenodd" d="M26.933 12.8201C19.6196 12.8201 13.6855 18.7541 13.6855 26.0675C13.6855 33.3809 19.6196 39.3149 26.933 39.3149C34.2319 39.3149 40.1804 33.3809 40.1804 26.0675C40.1804 18.7541 34.2319 12.8201 26.933 12.8201ZM35.6831 18.9265C37.2636 20.8518 38.212 23.3088 38.2407 25.9669C37.8671 25.8951 34.1313 25.1335 30.3669 25.6077C30.2807 25.4209 30.2089 25.2197 30.1227 25.0186C29.8928 24.4727 29.6342 23.9123 29.3755 23.3807C33.5422 21.6852 35.4389 19.2426 35.6831 18.9265ZM26.933 14.7741C29.8066 14.7741 32.4359 15.8517 34.4331 17.619C34.2319 17.9064 32.5221 20.1909 28.499 21.6996C26.6456 18.2943 24.591 15.5069 24.2749 15.0759C25.1225 14.8747 26.0134 14.7741 26.933 14.7741ZM22.1197 15.8374C22.4214 16.2397 24.4329 19.0415 26.3151 22.3748C21.0277 23.783 16.358 23.7542 15.8551 23.7542C16.5879 20.2484 18.9586 17.3317 22.1197 15.8374ZM15.6109 26.0819C15.6109 25.9669 15.6109 25.852 15.6109 25.737C16.0994 25.7514 21.588 25.8232 27.2347 24.1278C27.5652 24.76 27.8669 25.4065 28.1543 26.0531C28.0105 26.0962 27.8525 26.1393 27.7088 26.1824C21.8754 28.0646 18.7719 33.2084 18.5132 33.6394C16.7172 31.6423 15.6109 28.9842 15.6109 26.0819ZM26.933 37.3895C24.3179 37.3895 21.9041 36.4987 19.9931 35.0044C20.1943 34.5878 22.4932 30.1624 28.8726 27.9354C28.9013 27.921 28.9158 27.921 28.9445 27.9066C30.5393 32.0302 31.1859 35.4929 31.3583 36.4843C29.9933 37.0734 28.499 37.3895 26.933 37.3895ZM33.2405 35.4499C33.1256 34.7602 32.5221 31.4555 31.0422 27.3893C34.5912 26.829 37.6946 27.7486 38.0826 27.8779C37.5941 31.0245 35.7837 33.74 33.2405 35.4499Z" fill="#835AA2"/>
</svg>
