<svg width="38" height="38" viewBox="0 0 38 38" fill="none" xmlns="http://www.w3.org/2000/svg">
<rect width="38" height="38" rx="5" fill="#B6D2E8"/>
<path d="M18.9998 11C14.5817 11 11 14.5949 11 19.0294C11 22.7948 13.583 25.9546 17.0674 26.8224V21.4832H15.4178V19.0294H17.0674V17.9721C17.0674 15.2392 18.2997 13.9725 20.9729 13.9725C21.4798 13.9725 22.3543 14.0724 22.7121 14.1719V16.3961C22.5233 16.3762 22.1953 16.3662 21.7879 16.3662C20.4763 16.3662 19.9694 16.865 19.9694 18.1616V19.0294H22.5825L22.1335 21.4832H19.9694V27C23.9306 26.5198 27 23.1347 27 19.0294C26.9997 14.5949 23.418 11 18.9998 11Z" fill="#234661"/>
</svg>
