<svg width="95" height="95" viewBox="0 0 95 95" fill="none" xmlns="http://www.w3.org/2000/svg">
<rect width="95" height="95" rx="10" fill="#234661"/>
<path d="M57.55 35.875V36.075H57.75H66.427C66.4271 36.075 66.4271 36.075 66.4271 36.075C66.7823 36.0752 67.1258 36.2024 67.3953 36.4338C67.6648 36.6651 67.8427 36.9853 67.8967 37.3364L68.0944 37.306L67.8967 37.3364L70.752 55.8989C70.7845 56.1108 70.7709 56.3273 70.7121 56.5335C70.6532 56.7396 70.5504 56.9306 70.4109 57.0934C70.2713 57.2561 70.0981 57.3868 69.9034 57.4764C69.7086 57.566 69.4968 57.6124 69.2824 57.6125C69.2823 57.6125 69.2823 57.6125 69.2823 57.6125H64.4561H64.2329L64.2573 57.8344C64.371 58.8673 64.2656 59.9126 63.9481 60.9021C63.6306 61.8917 63.1081 62.8031 62.4146 63.5771C61.7211 64.351 60.8723 64.9701 59.9235 65.394C58.9747 65.8178 57.9471 66.0369 56.9079 66.0369C55.8687 66.0369 54.8412 65.8178 53.8924 65.394C52.9436 64.9701 52.0947 64.351 51.4013 63.5771C50.7078 62.8031 50.1853 61.8917 49.8677 60.9021C49.5502 59.9126 49.4449 58.8673 49.5585 57.8344L49.583 57.6125H49.3597H42.5153H42.292L42.3165 57.8344C42.4301 58.8673 42.3248 59.9126 42.0073 60.9021C41.6897 61.8917 41.1672 62.8031 40.4737 63.5771C39.7803 64.351 38.9314 64.9701 37.9826 65.394C37.0338 65.8178 36.0063 66.0369 34.9671 66.0369C33.9279 66.0369 32.9003 65.8178 31.9515 65.394C31.0027 64.9701 30.1539 64.351 29.4604 63.5771C28.7669 62.8031 28.2444 61.8917 27.9269 60.9021C27.6094 59.9126 27.504 58.8673 27.6177 57.8344L27.4222 57.8129V57.8125V57.6125H27.4189H27.2397H25.6875C25.293 57.6125 24.9146 57.4558 24.6357 57.1768C24.3567 56.8979 24.2 56.5195 24.2 56.125V30.8125C24.2 30.418 24.3567 30.0396 24.6357 29.7607C24.9146 29.4817 25.293 29.325 25.6875 29.325H56.0625C56.457 29.325 56.8354 29.4817 57.1143 29.7607C57.3933 30.0396 57.55 30.418 57.55 30.8125V35.875ZM28.6541 54.6375H28.7612L28.8206 54.5484C29.495 53.5357 30.4091 52.7054 31.4817 52.1311C32.5543 51.5567 33.7521 51.2562 34.9688 51.2562C36.1854 51.2562 37.3832 51.5567 38.4558 52.1311C39.5284 52.7054 40.4425 53.5357 41.1169 54.5484L41.1763 54.6375H41.2834H50.595H50.702L50.7613 54.5485C51.6387 53.2341 52.9303 52.2187 54.445 51.6831L54.5784 51.6359V51.4945V32.5V32.3H54.3784H27.375H27.175V32.5V54.4375V54.6375H27.375H28.6541ZM63.0546 54.5486L63.114 54.6375H63.2209H67.3148H67.5478L67.5124 54.4072L66.4763 47.6572L66.4503 47.4875H66.2786H57.75H57.55V47.6875V51.1097V51.2887L57.7278 51.3085C58.7981 51.4281 59.8293 51.78 60.7494 52.3396C61.6695 52.8993 62.4562 53.6532 63.0546 54.5486ZM65.7589 44.5125H65.9919L65.9566 44.2822L65.1803 39.2197L65.1543 39.05H64.9826H57.75H57.55V39.25V44.3125V44.5125H57.75H65.7589ZM56.9062 63.075C58.0782 63.075 59.2021 62.6095 60.0308 61.7808C60.8595 60.9521 61.325 59.8282 61.325 58.6562C61.325 57.4843 60.8595 56.3604 60.0308 55.5317C59.2021 54.703 58.0782 54.2375 56.9062 54.2375C55.7343 54.2375 54.6104 54.703 53.7817 55.5317C52.953 56.3604 52.4875 57.4843 52.4875 58.6562C52.4875 59.8282 52.953 60.9521 53.7817 61.7808C54.6104 62.6095 55.7343 63.075 56.9062 63.075ZM34.9688 63.075C36.1407 63.075 37.2646 62.6095 38.0933 61.7808C38.922 60.9521 39.3875 59.8282 39.3875 58.6562C39.3875 57.4843 38.922 56.3604 38.0933 55.5317C37.2646 54.703 36.1407 54.2375 34.9688 54.2375C33.7968 54.2375 32.6729 54.703 31.8442 55.5317C31.0155 56.3604 30.55 57.4843 30.55 58.6562C30.55 59.8282 31.0155 60.9521 31.8442 61.7808C32.6729 62.6095 33.7968 63.075 34.9688 63.075Z" fill="white" stroke="#234661" stroke-width="0.4"/>
</svg>
