<svg width="95" height="95" viewBox="0 0 95 95" fill="none" xmlns="http://www.w3.org/2000/svg">
<rect width="95" height="95" rx="10" fill="#234661"/>
<path d="M38.3125 29.125V45.9688H56.6875V29.125H38.3125ZM41.375 32.1875H44.4375V38.3125L47.5 35.25L50.5625 38.3125V32.1875H53.625V42.9062H41.375V32.1875ZM27.5938 49.0312V65.875H45.9688V49.0312H27.5938ZM49.0312 49.0312V65.875H67.4062V49.0312H49.0312ZM30.6562 52.0938H33.7188V58.2188L36.7812 55.1562L39.8438 58.2188V52.0938H42.9062V62.8125H30.6562V52.0938ZM52.0938 52.0938H55.1562V58.2188L58.2188 55.1562L61.2812 58.2188V52.0938H64.3438V62.8125H52.0938V52.0938Z" fill="white"/>
</svg>
