<svg width="95" height="95" viewBox="0 0 95 95" fill="none" xmlns="http://www.w3.org/2000/svg">
<rect width="95" height="95" rx="10" fill="#234661"/>
<path fill-rule="evenodd" clip-rule="evenodd" d="M47 35.0004C43.4012 30.8063 37.3875 29.5102 32.8785 33.3507C28.3694 37.1912 27.7345 43.6122 31.2756 48.1544C34.2197 51.9308 43.1296 59.8958 46.0498 62.4738C46.3764 62.7622 46.5398 62.9064 46.7304 62.963C46.8966 63.0124 47.0786 63.0124 47.245 62.963C47.4356 62.9064 47.5988 62.7622 47.9256 62.4738C50.8458 59.8958 59.7556 51.9308 62.6998 48.1544C66.2408 43.6122 65.6834 37.1508 61.0968 33.3507C56.5102 29.5506 50.5988 30.8063 47 35.0004Z" stroke="white" stroke-width="3" stroke-linecap="round" stroke-linejoin="round"/>
</svg>
