<svg width="53" height="53" viewBox="0 0 53 53" fill="none" xmlns="http://www.w3.org/2000/svg">
<rect x="1" y="1" width="50.1349" height="50.1349" rx="4" stroke="#DDDDDD" stroke-width="2"/>
<path d="M26.0675 12.8201C18.7513 12.8201 12.8203 18.773 12.8203 26.1161C12.8203 32.3515 17.0975 37.5837 22.8675 39.0208V30.1794H20.1359V26.1161H22.8675V24.3653C22.8675 19.8399 24.9081 17.7423 29.3347 17.7423C30.1741 17.7423 31.6222 17.9077 32.2147 18.0725V21.7556C31.902 21.7226 31.3589 21.7061 30.6843 21.7061C28.5123 21.7061 27.673 22.532 27.673 24.6791V26.1161H32.0001L31.2566 30.1794H27.673V39.3149C34.2325 38.5198 39.3151 32.9142 39.3151 26.1161C39.3146 18.773 33.3836 12.8201 26.0675 12.8201Z" fill="#835AA2"/>
</svg>
