<svg width="23" height="23" viewBox="0 0 23 23" fill="none" xmlns="http://www.w3.org/2000/svg">
<path fill-rule="evenodd" clip-rule="evenodd" d="M19.4041 11.0587C19.9618 11.6394 20.3047 12.4286 20.3047 13.2969C20.3047 14.9881 19.0045 16.3774 17.3499 16.519V16.5313C17.3499 16.928 17.0279 17.25 16.6312 17.25H14.375C13.9783 17.25 13.6562 16.928 13.6562 16.5313V10.0625C13.6562 9.66575 13.9783 9.34375 14.375 9.34375H16.6312C17.0279 9.34375 17.3499 9.66575 17.3499 10.0625V10.0747C17.5483 10.0913 17.7423 10.1265 17.9292 10.1782C17.7704 7.93357 17.135 6.25744 16.118 5.11175C14.9766 3.82519 13.3623 3.23941 11.5 3.23941C9.63556 3.23941 8.01838 3.78925 6.87556 5.04347C5.84559 6.17479 5.20878 7.85163 5.06359 10.1358C5.25334 10.0948 5.44956 10.0704 5.65009 10.0639V10.0625C5.65009 9.66575 5.97209 9.34375 6.36884 9.34375H8.625C9.02175 9.34375 9.34375 9.66575 9.34375 10.0625V16.5313C9.34375 16.928 9.02175 17.25 8.625 17.25H6.36884C5.97209 17.25 5.65009 16.928 5.65009 16.5313V16.5298C5.37625 16.5212 5.11103 16.4788 4.85875 16.4069V18.5078C4.85875 18.607 4.93925 18.6875 5.03844 18.6875H7.46062V18.3899C7.46062 17.9932 7.78191 17.6712 8.17937 17.6712H11.9456C12.3431 17.6712 12.6644 17.9932 12.6644 18.3899V20.4226C12.6644 20.8193 12.3431 21.1413 11.9456 21.1413H8.17937C7.78191 21.1413 7.46062 20.8193 7.46062 20.4226V20.125H5.03844C4.14575 20.125 3.42125 19.4005 3.42125 18.5078V15.5401C2.86062 14.9586 2.51562 14.168 2.51562 13.2969C2.51562 12.3388 2.93322 11.4777 3.59591 10.8848C3.64478 7.75891 4.48212 5.53654 5.81325 4.07604C7.22272 2.52785 9.19928 1.80191 11.5 1.80191C13.8029 1.80191 15.7823 2.56666 17.1932 4.15797C18.5251 5.65872 19.3595 7.92422 19.4041 11.0587ZM11.2269 19.1087H8.89812V19.7038H11.2269V19.1087ZM7.08759 10.7813V15.8125H7.90625V10.7813H7.08759ZM15.0938 10.7813V15.8125H15.9124V10.7813H15.0938ZM5.65009 11.5029V15.0909C4.70494 15.0391 3.95312 14.255 3.95312 13.2969C3.95312 12.3388 4.70494 11.5546 5.65009 11.5029ZM17.3499 11.5216C18.2088 11.656 18.8672 12.3999 18.8672 13.2969C18.8672 14.1939 18.2088 14.9378 17.3499 15.0722V11.5216Z" fill="white"/>
</svg>
