<svg width="54" height="53" viewBox="0 0 54 53" fill="none" xmlns="http://www.w3.org/2000/svg">
<rect x="1.91016" y="1" width="50.1349" height="50.1349" rx="4" stroke="#DDDDDD" stroke-width="2"/>
<path d="M38.264 12.8201H15.6865C14.605 12.8201 13.7305 13.6739 13.7305 14.7296V37.4002C13.7305 38.4559 14.605 39.3149 15.6865 39.3149H38.264C39.3456 39.3149 40.2253 38.4559 40.2253 37.4054V14.7296C40.2253 13.6739 39.3456 12.8201 38.264 12.8201ZM21.5909 35.3976H17.6581V22.7504H21.5909V35.3976ZM19.6245 21.0272C18.3619 21.0272 17.3425 20.0078 17.3425 18.7504C17.3425 17.4929 18.3619 16.4735 19.6245 16.4735C20.882 16.4735 21.9014 17.4929 21.9014 18.7504C21.9014 20.0026 20.882 21.0272 19.6245 21.0272ZM36.308 35.3976H32.3803V29.25C32.3803 27.7855 32.3545 25.8967 30.3363 25.8967C28.2923 25.8967 27.9818 27.4957 27.9818 29.1465V35.3976H24.0593V22.7504H27.8265V24.4788H27.8783C28.4009 23.4853 29.6843 22.4348 31.5938 22.4348C35.5732 22.4348 36.308 25.0532 36.308 28.4582V35.3976V35.3976Z" fill="#835AA2"/>
</svg>
