<svg class="custom-button-svg" width="38" height="38" viewBox="0 0 38 38" fill="none" xmlns="http://www.w3.org/2000/svg">
<rect width="38" height="38" rx="5" fill="#B6D2E8"/>
<path d="M25.8156 11H12.1812C11.5281 11 11 11.5156 11 12.1531V25.8438C11 26.4813 11.5281 27 12.1812 27H25.8156C26.4688 27 27 26.4813 27 25.8469V12.1531C27 11.5156 26.4688 11 25.8156 11ZM15.7469 24.6344H13.3719V16.9969H15.7469V24.6344ZM14.5594 15.9563C13.7969 15.9563 13.1813 15.3406 13.1813 14.5812C13.1813 13.8219 13.7969 13.2062 14.5594 13.2062C15.3188 13.2062 15.9344 13.8219 15.9344 14.5812C15.9344 15.3375 15.3188 15.9563 14.5594 15.9563ZM24.6344 24.6344H22.2625V20.9219C22.2625 20.0375 22.2469 18.8969 21.0281 18.8969C19.7937 18.8969 19.6062 19.8625 19.6062 20.8594V24.6344H17.2375V16.9969H19.5125V18.0406H19.5437C19.8594 17.4406 20.6344 16.8063 21.7875 16.8063C24.1906 16.8063 24.6344 18.3875 24.6344 20.4438V24.6344Z" fill="#234661"/>
</svg>
