<svg width="18" height="18" viewBox="0 0 18 18" fill="none" xmlns="http://www.w3.org/2000/svg">
<path fill-rule="evenodd" clip-rule="evenodd" d="M5.40039 0.6H6.60039C6.60039 0.44087 6.6636 0.288257 6.77613 0.175735C6.88865 0.0632137 7.04126 0 7.20039 0H10.8004C10.9595 0 11.1121 0.0632137 11.2247 0.175735C11.3372 0.288257 11.4004 0.44087 11.4004 0.6H12.6004V1.8H5.40039V0.6Z" fill="white"/>
<path fill-rule="evenodd" clip-rule="evenodd" d="M12.352 14.7516C12.2403 14.8628 12.1517 14.995 12.0914 15.1406C12.0311 15.2862 12.0001 15.4424 12.0004 15.6V18H3.60039C3.28213 18 2.97691 17.8735 2.75186 17.6485C2.52682 17.4235 2.40039 17.1182 2.40039 16.8V1.79998C2.40039 1.48172 2.52682 1.17649 2.75186 0.951447C2.97691 0.726403 3.28213 0.599976 3.60039 0.599976H4.20039V2.39998C4.20039 2.55911 4.2636 2.71172 4.37613 2.82424C4.48865 2.93676 4.64126 2.99998 4.80039 2.99998H13.2004C13.3595 2.99998 13.5121 2.93676 13.6247 2.82424C13.7372 2.71172 13.8004 2.55911 13.8004 2.39998V0.599976H14.4004C14.7186 0.599976 15.0239 0.726403 15.2489 0.951447C15.474 1.17649 15.6004 1.48172 15.6004 1.79998V14.4M13.2004 18V15.6H15.6004L13.2004 18ZM6.00039 5.39998H12.0004C12.1595 5.39998 12.3121 5.46319 12.4247 5.57571C12.5372 5.68823 12.6004 5.84085 12.6004 5.99998C12.6004 6.15911 12.5372 6.31172 12.4247 6.42424C12.3121 6.53676 12.1595 6.59998 12.0004 6.59998H6.00039C5.84126 6.59998 5.68865 6.53676 5.57613 6.42424C5.4636 6.31172 5.40039 6.15911 5.40039 5.99998C5.40039 5.84085 5.4636 5.68823 5.57613 5.57571C5.68865 5.46319 5.84126 5.39998 6.00039 5.39998ZM6.00039 8.39998H12.0004C12.1595 8.39998 12.3121 8.46319 12.4247 8.57571C12.5372 8.68823 12.6004 8.84085 12.6004 8.99998C12.6004 9.15911 12.5372 9.31172 12.4247 9.42424C12.3121 9.53676 12.1595 9.59997 12.0004 9.59997H6.00039C5.84126 9.59997 5.68865 9.53676 5.57613 9.42424C5.4636 9.31172 5.40039 9.15911 5.40039 8.99998C5.40039 8.84085 5.4636 8.68823 5.57613 8.57571C5.68865 8.46319 5.84126 8.39998 6.00039 8.39998ZM6.00039 11.4H12.0004C12.1595 11.4 12.3121 11.4632 12.4247 11.5757C12.5372 11.6882 12.6004 11.8408 12.6004 12C12.6004 12.1591 12.5372 12.3117 12.4247 12.4242C12.3121 12.5368 12.1595 12.6 12.0004 12.6H6.00039C5.84126 12.6 5.68865 12.5368 5.57613 12.4242C5.4636 12.3117 5.40039 12.1591 5.40039 12C5.40039 11.8408 5.4636 11.6882 5.57613 11.5757C5.68865 11.4632 5.84126 11.4 6.00039 11.4Z" fill="white"/>
</svg>
