<svg width="15" height="20" viewBox="0 0 15 20" fill="none" xmlns="http://www.w3.org/2000/svg">
<path d="M7.5 0C3.35813 0 0 3.35813 0 7.5C0 9.13094 0.534688 10.6275 1.42344 11.8531C1.43938 11.8825 1.44187 11.9153 1.46 11.9434L6.46 19.4434C6.69188 19.7913 7.0825 20 7.5 20C7.9175 20 8.30812 19.7913 8.54 19.4434L13.54 11.9434C13.5584 11.9153 13.5606 11.8825 13.5766 11.8531C14.4653 10.6275 15 9.13094 15 7.5C15 3.35813 11.6419 0 7.5 0ZM7.5 10C6.11937 10 5 8.88063 5 7.5C5 6.11937 6.11937 5 7.5 5C8.88063 5 10 6.11937 10 7.5C10 8.88063 8.88063 10 7.5 10Z" fill="#835AA2"/>
</svg>
