<svg width="64" height="67" viewBox="0 0 64 67" fill="none" xmlns="http://www.w3.org/2000/svg">
<path d="M24.1504 5.51148L26.7464 10.3813C29.0892 14.776 28.1488 20.5411 24.4588 24.404C24.4588 24.404 19.9835 29.0898 28.098 37.585C36.21 46.0773 40.6888 41.3948 40.6888 41.3948C44.3788 37.5318 49.8856 36.5473 54.0836 39L58.7352 41.7176C65.0744 45.4211 65.8228 54.7274 60.2512 60.5606C56.9032 64.0655 52.8016 66.7929 48.2676 66.9725C40.6352 67.2757 27.6732 65.2535 14.6708 51.6416C1.66853 38.0297 -0.263152 24.4602 0.0262083 16.4699C0.198088 11.7234 2.80321 7.42961 6.15124 3.92466C11.723 -1.90833 20.6127 -1.1246 24.1504 5.51148Z" fill="#835AA2"/>
</svg>
