<svg width="52" height="52" viewBox="0 0 52 52" fill="none" xmlns="http://www.w3.org/2000/svg">
<path d="M48.5 41.1667C48.3333 41.0834 48.0833 40.9167 47.9167 40.8334C46.4647 40.0942 44.9622 39.4309 43.4152 38.8395C43.3287 38.7232 43.2187 38.6285 43.0834 38.5834C41.1667 37.9167 39.0834 37.2501 37.0001 36.7501C36.8721 36.7181 36.7318 36.7232 36.5981 36.7603C35.5805 36.5209 34.5487 36.3076 33.5043 36.1192C33.5487 35.8073 33.577 35.4898 33.5834 35.1667V32.964C37.0981 29.8631 39.2709 24.8522 39.1667 20.1667V16.043C39.2232 16.0022 39.2789 15.9603 39.3334 15.9167C40.4167 15 41.0001 13.6667 41.0001 12.3334C41 6.0833 35.9167 1 29.75 1H22.3333C16.0833 1 11 6.0833 10.9166 12.25C10.9166 13.6667 11.4999 14.9167 12.5833 15.8333C12.6105 15.8543 12.639 15.8738 12.6666 15.8942V20.1666C12.6666 24.8926 14.9172 29.9487 18.4999 33.043V35.1666C18.4999 35.4577 18.5179 35.7441 18.5495 36.0262C13.364 36.9569 8.49189 38.5055 4.0832 40.7499L3.4999 41.0832C1.9167 41.8333 1 43.4167 1 45.1667V50.1667C1 50.6667 1.3333 51 1.8333 51H10.1666H41.8333H50.1666C50.6666 51 50.9999 50.6667 50.9999 50.25V45.25C51 43.5833 50 42 48.5 41.1667ZM37.3333 44.3333H34.0833L37.3062 38.5486C38.7026 38.9025 40.0687 39.3106 41.3989 39.7698L37.3333 44.3333ZM38.25 14.5833C38.2281 14.6024 38.2053 14.6202 38.1829 14.6387C38.0893 14.6604 37.9983 14.6955 37.9167 14.75C37.5562 15.0204 37.1712 15.1924 36.7752 15.2679C36.4611 15.316 36.1416 15.3117 35.8334 15.25C29.8565 14.1151 23.811 14.0107 18.0086 14.9365C17.3646 15.0296 16.7228 15.1337 16.0834 15.25C15.9808 15.2614 15.8781 15.2677 15.7757 15.2697C15.1058 15.2577 14.4565 15.0716 13.9167 14.6667C13.4167 14.3334 13.0834 13.8334 12.9167 13.3334L16.5 12.6667C22.75 11.5 29.1667 11.5 35.5833 12.6667L39.1387 13.3281C38.9542 13.7999 38.6469 14.236 38.25 14.5833ZM22.25 2.6667H29.6667C34.7783 2.6667 38.9706 6.64736 39.3105 11.6738L35.8334 11.0834C29.2501 9.9167 22.5834 9.9167 16.1667 11.0834L12.6896 11.6738C13.0292 6.64736 17.2183 2.6667 22.25 2.6667ZM14.3333 20.1667V16.75C15 16.9167 15.75 17 16.5 16.8333C19.6114 16.2525 22.7641 15.961 25.9375 15.9585C29.1113 15.961 32.3057 16.2524 35.5 16.8333C35.7276 16.8902 35.9161 16.9079 36.0926 16.9137C36.6172 16.9534 37.1654 16.8753 37.6666 16.75V20.1667C37.6666 27.938 31.9669 33.8597 26.6396 34.3054C26.5794 34.3102 26.5191 34.3152 26.459 34.3187C26.4171 34.3212 26.3752 34.3232 26.3333 34.3251C26.222 34.3298 26.1108 34.3334 25.9999 34.3334C25.8889 34.3334 25.7774 34.3298 25.6659 34.3251C25.6249 34.3232 25.5839 34.3213 25.5428 34.3187C25.4783 34.315 25.4137 34.3097 25.3491 34.3044C24.2757 34.2131 23.1875 33.9003 22.1339 33.3942C22.125 33.3898 22.1159 33.386 22.107 33.3815C22.1007 33.3784 22.0943 33.3751 22.088 33.3721C21.3322 32.9943 20.6012 32.5079 19.9166 31.9167C19.8433 31.8678 19.7554 31.8264 19.6617 31.796C16.6258 29.28 14.3333 25.0951 14.3333 20.1667ZM25.599 35.9917C25.6087 35.9921 25.6184 35.9929 25.628 35.9932C25.7515 35.9976 25.8754 35.9999 25.9999 35.9999C26.1244 35.9999 26.2483 35.9975 26.3718 35.9932C26.3814 35.9928 26.3912 35.9921 26.4009 35.9917C28.3735 35.9166 30.2065 35.2899 31.8332 34.2729V35.1666C31.8332 38.4166 29.2499 40.9999 25.9999 40.9999C22.7499 40.9999 20.1666 38.4166 20.1666 35.1666V34.275C21.7958 35.2909 23.6277 35.9167 25.599 35.9917ZM19.1171 38.1657C19.1329 38.2018 19.149 38.2375 19.1654 38.2731C19.5077 39.0315 19.9716 39.721 20.5336 40.3176C20.5631 40.3491 20.5929 40.3803 20.6229 40.4112C20.6589 40.4482 20.695 40.4851 20.7318 40.5213C20.7962 40.585 20.8617 40.6474 20.9283 40.7085C20.9363 40.7158 20.944 40.7234 20.9521 40.7308C22.1021 41.779 23.5696 42.4551 25.1957 42.6238C25.2217 42.6266 25.2479 42.6289 25.2739 42.6314C25.3658 42.64 25.4582 42.647 25.5511 42.6522C25.582 42.654 25.6129 42.6562 25.6439 42.6576C25.762 42.663 25.8806 42.6665 26.0001 42.6665C26.1196 42.6665 26.2385 42.663 26.3568 42.6576C26.3871 42.6563 26.4171 42.6541 26.4473 42.6524C26.5428 42.647 26.6378 42.6398 26.7323 42.6311C26.7546 42.6289 26.777 42.627 26.7991 42.6246C29.1786 42.3808 31.2566 41.0581 32.436 39.0779C32.4434 39.066 32.4505 39.0539 32.4577 39.042C32.4726 39.0167 32.4875 38.9915 32.5021 38.966C32.7449 38.5581 32.9512 38.1256 33.1163 37.6723C33.9368 37.8073 34.7478 37.9637 35.5502 38.1367L32.1455 44.3332H19.8086L16.409 38.1459C17.2354 37.9665 18.071 37.8052 18.9167 37.6666C18.9635 37.7961 19.0145 37.923 19.0674 38.0488C19.0835 38.0881 19.1003 38.1269 19.1171 38.1657ZM10.6744 39.7589C12.0048 39.2943 13.3711 38.8854 14.7674 38.5319L17.9167 44.3333H14.6667L10.6744 39.7589ZM2.6667 45.1667C2.6667 44.0834 3.25 43.0834 4.25 42.5834L4.8333 42.2501C6.15654 41.5755 7.52842 40.9575 8.94355 40.4011L12.5686 44.4354C10.697 44.8489 9.3332 46.488 9.3332 48.5001V49.3334H2.6667V45.1667ZM11 49.3333V48.5C11 47.0833 12.0833 46 13.5 46H14.3333H19.3333H32.6666H37.6666H38.5C39.9167 46 41 47.0833 41 48.5V49.3333H11ZM49.3333 49.3333H42.6666V48.5C42.6666 46.4655 41.2728 44.8117 39.369 44.4212L43.0188 40.3594C44.4472 40.9073 45.8316 41.5122 47.1666 42.1666C47.3333 42.3333 47.5833 42.4166 47.7499 42.4999C48.7499 43.0832 49.3332 44.0832 49.3332 45.1666V49.3333H49.3333Z" fill="#835AA2" stroke="#835AA2"/>
<path d="M21.8333 8.5H30.1666C30.6666 8.5 30.9999 8.1667 30.9999 7.6667V4.3333C30.9999 3.8333 30.6666 3.5 30.1666 3.5H21.8333C21.3333 3.5 21 3.8333 21 4.3333V7.6666C21 8.1667 21.3333 8.5 21.8333 8.5ZM22.6667 5.1667H29.3334V6.8334H22.6667V5.1667Z" fill="#835AA2" stroke="#835AA2"/>
<path d="M16.8333 46.8335C16.3333 46.8335 16 47.1668 16 47.6668C16 48.1668 16.3333 48.5001 16.8333 48.5001C17.3333 48.5001 17.6666 48.1668 17.6666 47.6668C17.6666 47.1668 17.3333 46.8335 16.8333 46.8335Z" fill="#835AA2" stroke="#835AA2"/>
<path d="M35.1667 46.8335C34.6667 46.8335 34.3334 47.1668 34.3334 47.6668C34.3334 48.1668 34.6667 48.5001 35.1667 48.5001C35.6667 48.5001 36 48.1668 36 47.6668C36 47.1668 35.6667 46.8335 35.1667 46.8335Z" fill="#835AA2" stroke="#835AA2"/>
</svg>
