<svg width="44" height="52" viewBox="0 0 44 52" fill="none" xmlns="http://www.w3.org/2000/svg">
<path d="M21.804 6.20801C22.1685 6.20801 22.5347 6.28801 22.8613 6.44096L35.6838 12.3919C36.5914 12.8108 37.1264 13.7369 37.0079 14.6873L35.6321 25.9926H21.8042V45.738C21.1297 45.738 20.4532 45.4942 19.9955 45.0018L9.31218 33.4625C8.9874 33.1128 8.78855 32.687 8.73422 32.2307L7.97188 25.9911H21.804V6.20801Z" fill="#835AA2"/>
<path d="M5.02374 6.80377L17.846 0.851942C20.2917 -0.283981 23.3154 -0.283981 25.7606 0.851942L38.5851 6.80377C41.989 8.38486 43.9825 11.8352 43.5467 15.3998L41.4149 32.9397C41.2048 34.658 40.4566 36.2582 39.247 37.5625L28.5638 49.1006C26.8538 50.9448 24.3936 51.9999 21.804 51.9999C19.2152 51.9999 16.7534 50.9448 15.0432 49.1006L4.35927 37.5625C3.15002 36.2582 2.40171 34.658 2.19407 32.9397L0.0584791 15.3998C-0.373627 11.8352 1.61934 8.38486 5.02374 6.80377ZM4.41906 14.9228L6.55421 32.4646C6.65998 33.3452 7.04053 34.1631 7.66091 34.8279L18.3466 46.3673C20.0891 48.2538 23.518 48.2538 25.2603 46.3673L35.9436 34.8279C36.5667 34.1631 36.947 33.3452 37.0545 32.4646L39.1879 14.9228C39.4106 13.1029 38.3896 11.3384 36.6512 10.5271L23.8304 4.57614C23.2002 4.28645 22.5005 4.1335 21.8042 4.1335C21.1078 4.1335 20.4063 4.28645 19.7788 4.57614L6.95792 10.5271C5.21569 11.3384 4.19627 13.1029 4.41906 14.9228Z" fill="#835AA2"/>
</svg>
