<svg width="86" height="86" viewBox="0 0 86 86" fill="none" xmlns="http://www.w3.org/2000/svg">
<rect width="86" height="86" rx="10" fill="#835AA2"/>
<path d="M34.348 32.7758H27.6187V42.991H34.348V32.7758Z" fill="white" fill-opacity="0.51"/>
<path d="M63.9785 57.2672H55.4703V55.0121H57.8332V52.0922H63.9785V57.2672Z" fill="white" fill-opacity="0.51"/>
<path d="M65.3262 26.1005H59.2797V27.4481H65.3262V26.1005Z" fill="white"/>
<path d="M57.932 26.1005H56.5844V27.4481H57.932V26.1005Z" fill="white"/>
<path d="M39.1098 62.595H33.0633V63.9426H39.1098V62.595Z" fill="white"/>
<path d="M31.7156 62.595H30.368V63.9426H31.7156V62.595Z" fill="white"/>
<path d="M46.8199 29.3574C46.8268 28.3055 45.9797 27.4471 44.9278 27.4402C43.8758 27.4333 43.0175 28.2804 43.0105 29.3324C43.0036 30.3843 43.8508 31.2427 44.9027 31.2496C45.9546 31.2565 46.813 30.4094 46.8199 29.3574Z" fill="white"/>
<path d="M44.9137 26.1005C43.1168 26.1005 41.6613 27.5559 41.6613 29.3528C41.6613 31.1497 43.1168 32.6052 44.9137 32.6052C46.7105 32.6052 48.166 31.1497 48.166 29.3528C48.166 27.5559 46.7016 26.1005 44.9137 26.1005ZM44.9137 31.2485C43.8625 31.2485 43.009 30.395 43.009 29.3438C43.009 28.2927 43.8625 27.4391 44.9137 27.4391C45.9648 27.4391 46.8184 28.2927 46.8184 29.3438C46.8184 30.395 45.9648 31.2485 44.9137 31.2485Z" fill="white"/>
<path d="M62.6309 42.9911H61.2832V44.3387H62.6309V42.9911Z" fill="white"/>
<path d="M46.432 45.6864H45.0844V47.0341H46.432V45.6864Z" fill="white"/>
<path d="M27.6187 50.7985H26.2711V52.1461H27.6187V50.7985Z" fill="white"/>
<path d="M51.9035 31.4281C52.6402 28.9485 52.0293 26.1453 50.0707 24.1867C48.6961 22.8121 46.8633 22.0485 44.9137 22.0485C42.9641 22.0485 41.1312 22.8031 39.7566 24.1867C37.798 26.1453 37.1871 28.9485 37.9238 31.4281H27.6188V26.6574H20.6738V58.6149H65.3262V31.4281H51.9035ZM40.709 25.1391C41.832 24.016 43.3234 23.3961 44.9137 23.3961C46.5039 23.3961 47.9953 24.016 49.1184 25.1391C51.4363 27.4571 51.4363 31.2305 49.1184 33.5485L44.9137 37.7531L40.709 33.5485C38.391 31.2305 38.391 27.466 40.709 25.1391ZM35.7047 32.7758H38.4809C38.8133 33.3957 39.2355 33.9797 39.7566 34.5008L44.9137 39.6578L50.0707 34.5008C50.5918 33.9797 51.023 33.3957 51.3465 32.7758H54.1227V37.8879H51.4273V42.991H35.7047V32.7758ZM27.6188 32.7758H34.348V42.991H27.6188V32.7758ZM42.434 57.2672H27.6188V53.5028H26.2711V57.2672H22.0215V28.0051H26.2711V49.4598H27.6188V44.3477H39.7746V52.1012H42.425V57.2672H42.434ZM63.9785 57.2672H55.4703V55.0211H57.8422V52.1012H63.9875V57.2672H63.9785ZM63.9785 50.7446H56.4855V53.6645H54.1137V57.2582H46.432V48.3727H45.0844V57.2582H43.7816V50.7446H41.1312V44.3387H59.9355V42.991H52.766V39.2356H55.4613V32.7758H63.9695V50.7446H63.9785Z" fill="white"/>
</svg>
