<svg width="50" height="50" viewBox="0 0 50 50" fill="none" xmlns="http://www.w3.org/2000/svg">
<g clip-path="url(#clip0_40_45)">
<path d="M21.0734 27.4569C21.0734 28.8748 19.924 30.0242 18.5061 30.0242C17.0883 30.0242 15.939 28.8748 15.939 27.4569C15.939 26.0391 17.0883 24.8896 18.5061 24.8896C19.924 24.8897 21.0734 26.0391 21.0734 27.4569ZM31.4939 24.8897C30.0761 24.8897 28.9266 26.0391 28.9266 27.457C28.9266 28.8748 30.0761 30.0242 31.4939 30.0242C32.9117 30.0242 34.0612 28.8748 34.0612 27.457C34.0611 26.0391 32.9118 24.8897 31.4939 24.8897ZM50 26.0259V30.9049C50 33.3544 48.0143 35.3401 45.5647 35.3401H42.3462C39.1571 44.195 31.0134 49.5435 25 49.5435C18.9866 49.5435 10.8429 44.195 7.65376 35.34H4.43529C1.9857 35.34 0 33.3544 0 30.9048V26.0258C0 24.3403 0.940441 22.8744 2.32516 22.124C2.37165 15.1971 4.39052 9.78726 8.3344 6.04731C12.2463 2.33767 17.8534 0.456543 25 0.456543C32.1466 0.456543 37.7537 2.33767 41.6656 6.04723C45.6094 9.78718 47.6282 15.1971 47.6748 22.1239C49.0596 22.8744 50 24.3403 50 26.0259ZM40.6127 27.4731C40.6127 26.3319 40.5542 25.2596 40.468 24.2205C38.4996 22.4196 34.9261 21.0531 30.4163 20.5454C31.0084 21.2112 31.5199 22.0871 31.8301 23.24C29.0677 21.0638 23.6454 21.5818 19.544 16.7119C19.3089 16.4399 19.1056 16.18 18.9297 15.9425C18.9277 15.9396 18.9254 15.9374 18.9234 15.9346L18.9239 15.9348C18.1942 14.948 17.9454 14.3611 17.9315 15.0108C17.8112 20.6083 13.8438 24.972 9.43824 25.5876C9.41038 26.2032 9.38758 26.8248 9.38758 27.4732C9.38758 29.8391 9.77394 31.9954 10.4308 33.9387C12.9055 36.9237 16.9922 37.7666 20.6094 37.9901C21.2809 36.9218 22.7875 36.176 24.5421 36.176C26.9209 36.176 28.8493 37.5448 28.8493 39.2335C28.8493 40.9221 26.9208 42.2909 24.5421 42.2909C22.7123 42.2909 21.1529 41.4796 20.5288 40.3373C18.0008 40.1903 15.2217 39.7593 12.7449 38.5896C16.228 43.7239 21.6279 46.4387 25 46.4387C30.2989 46.4387 40.6127 39.7447 40.6127 27.4731ZM45.0045 21.5906C44.7222 9.50311 37.8228 3.11782 25 3.11782C12.1772 3.11782 5.27786 9.50311 4.99551 21.5906H6.70196C7.3259 17.5165 8.64461 14.1659 10.6468 11.5896C13.8374 7.4844 18.6665 5.40278 25 5.40278C31.3335 5.40278 36.1626 7.4844 39.3534 11.5896C41.3554 14.1659 42.6742 17.5165 43.2981 21.5906H45.0045Z" fill="#835AA2"/>
</g>
<defs>
<clipPath id="clip0_40_45">
<rect width="50" height="50" fill="white"/>
</clipPath>
</defs>
</svg>
