<svg width="18" height="18" viewBox="0 0 18 18" fill="none" xmlns="http://www.w3.org/2000/svg">
<path d="M13.5 5.25V10.35C13.5 11.1901 13.5 11.6101 13.3365 11.931C13.1927 12.2132 12.9632 12.4427 12.681 12.5865C12.3601 12.75 11.9401 12.75 11.1 12.75H8.4C7.55992 12.75 7.13985 12.75 6.819 12.5865C6.53677 12.4427 6.3073 12.2132 6.16349 11.931C6 11.6101 6 11.1901 6 10.35V4.65C6 3.80992 6 3.38988 6.16349 3.06902C6.3073 2.78677 6.53677 2.5573 6.819 2.41349C7.13985 2.25 7.55992 2.25 8.4 2.25H10.5M13.5 5.25L10.5 2.25M13.5 5.25H11.7C11.2799 5.25 11.0699 5.25 10.9095 5.16826C10.7683 5.09635 10.6537 4.98161 10.5817 4.84049C10.5 4.68006 10.5 4.47004 10.5 4.05V2.25M3 5.25V10.95C3 12.6302 3 13.4702 3.32698 14.112C3.6146 14.6764 4.07354 15.1354 4.63803 15.423C5.27977 15.75 6.11984 15.75 7.8 15.75H10.5" stroke="#101518" stroke-linecap="round" stroke-linejoin="round"/>
</svg>
