<svg width="12" height="16" viewBox="0 0 12 16" fill="none" xmlns="http://www.w3.org/2000/svg">
<path d="M11.5 4.25V9.35C11.5 10.1901 11.5 10.6101 11.3365 10.931C11.1927 11.2132 10.9632 11.4427 10.681 11.5865C10.3601 11.75 9.94007 11.75 9.1 11.75H6.4C5.55992 11.75 5.13985 11.75 4.819 11.5865C4.53677 11.4427 4.3073 11.2132 4.16349 10.931C4 10.6101 4 10.1901 4 9.35V3.65C4 2.80992 4 2.38988 4.16349 2.06902C4.3073 1.78677 4.53677 1.5573 4.819 1.41349C5.13985 1.25 5.55992 1.25 6.4 1.25H8.5M11.5 4.25L8.5 1.25M11.5 4.25H9.7C9.27992 4.25 9.06992 4.25 8.9095 4.16826C8.76835 4.09635 8.65367 3.98161 8.58175 3.84049C8.5 3.68006 8.5 3.47004 8.5 3.05V1.25M1 4.25V9.95C1 11.6302 1 12.4702 1.32698 13.112C1.6146 13.6764 2.07354 14.1354 2.63803 14.423C3.27977 14.75 4.11984 14.75 5.8 14.75H8.5" stroke="#835AA2" stroke-linecap="round" stroke-linejoin="round"/>
</svg>
